<?xml version="1.0" encoding="UTF-8"?>
<svg id="Layer_1" xmlns="http://www.w3.org/2000/svg" version="1.1" viewBox="0 0 1080 404.48">
  <!-- Generator: Adobe Illustrator 30.2.1, SVG Export Plug-In . SVG Version: 2.1.1 Build 1)  -->
  <defs>
    <style>
      .st0 {
        fill: #0049c3;
      }
    </style>
  </defs>
  <path d="M0,321.89V8.47h160.94c20.61,0,37.83,3.39,51.67,10.17,13.83,6.78,24.28,15.95,31.34,27.53,7.05,11.58,10.59,24.56,10.59,38.96,0,18.92-4.94,33.82-14.82,44.68-9.89,10.87-21.18,18.15-33.88,21.81v3.81c8.19,1.69,17.15,5.37,26.89,11.01,9.74,5.65,18.07,13.76,24.99,24.35,6.92,10.59,10.38,24.35,10.38,41.29,0,14.97-3.53,29.3-10.59,42.99-7.06,13.7-18.15,24.92-33.25,33.67-15.11,8.75-35.09,13.13-59.93,13.13H0ZM144,75.81h-62.68v54.64h62.68c10.73,0,18.77-2.47,24.14-7.41,5.36-4.94,8.05-11.65,8.05-20.12s-2.69-14.75-8.05-19.69c-5.37-4.94-13.41-7.41-24.14-7.41ZM149.93,191.01h-68.61v63.53h68.61c12.42,0,21.6-2.96,27.53-8.89,5.93-5.93,8.89-13.69,8.89-23.29s-2.96-17.22-8.89-22.87c-5.93-5.64-15.11-8.47-27.53-8.47Z"/>
  <path d="M310.45,321.89V0h80.47v321.89h-80.47Z"/>
  <path d="M462.49,404.48c-8.47,0-17.37-.57-26.68-1.69v-63.53c6.78.56,13.13.85,19.06.85,11.29,0,20.68-1.13,28.17-3.39,7.48-2.26,14.04-7.06,19.69-14.4l-80.05-224.9h79.62l43.2,135.53,41.51-135.53h79.62l-75.81,209.65c-7.62,21.45-16.66,39.45-27.11,54-10.45,14.54-23.65,25.41-39.6,32.61-15.96,7.2-36.5,10.8-61.62,10.8Z"/>
  <path d="M698.4,404.48V97.41h80.47v24.56h3.39c4.8-5.93,9.67-10.73,14.61-14.4,4.94-3.67,11.36-6.99,19.27-9.95,7.9-2.96,17.36-4.45,28.38-4.45,16.37,0,30.56,3.32,42.57,9.95,12,6.64,22.02,15.53,30.07,26.68,8.05,11.16,14.04,23.65,18,37.48,3.95,13.84,5.93,27.95,5.93,42.35s-1.98,28.52-5.93,42.35c-3.96,13.84-9.95,26.33-18,37.48-8.05,11.16-18.07,20.05-30.07,26.68-12.01,6.63-26.19,9.95-42.57,9.95-11.01,0-20.47-1.48-28.38-4.45-7.91-2.96-14.33-6.28-19.27-9.95-4.94-3.67-9.81-8.47-14.61-14.4h-3.39v107.15h-80.47ZM775.9,209.65c0,8.47,1.55,16.73,4.66,24.78,3.1,8.05,7.76,14.69,13.98,19.91,6.21,5.23,13.98,7.84,23.29,7.84s17.43-2.61,23.51-7.84c6.07-5.22,10.65-11.86,13.76-19.91,3.1-8.05,4.66-16.31,4.66-24.78s-1.56-16.73-4.66-24.78c-3.11-8.05-7.7-14.68-13.76-19.91-6.07-5.22-13.91-7.84-23.51-7.84s-17.09,2.61-23.29,7.84c-6.21,5.23-10.87,11.86-13.98,19.91-3.11,8.05-4.66,16.31-4.66,24.78Z"/>
  <path class="st0" d="M1038.07,326.12c-12.14,0-22.17-4.17-30.07-12.5-7.91-8.32-11.86-18.14-11.86-29.44s3.95-21.45,11.86-29.65c7.9-8.19,17.93-12.28,30.07-12.28s22.16,4.1,30.07,12.28c7.9,8.19,11.86,18.07,11.86,29.65s-3.96,21.11-11.86,29.44c-7.91,8.33-17.93,12.5-30.07,12.5Z"/>
</svg>